<svg xmlns="http://www.w3.org/2000/svg" width="44" height="25.76" viewBox="0 0 44 25.76">
  <path id="Path_4" data-name="Path 4" d="M33.682,20.1a6.644,6.644,0,0,1-4.9-.991c-.749-.5-1.4-.937-2.111-1.443,2.1-1.709,4.9-4.025,8.842-7.311,1.939,1.812,3.546,4.462,1.585,7.525a5.124,5.124,0,0,1-3.419,2.22m-23.364,0A5.121,5.121,0,0,1,6.9,17.879c-1.96-3.063-.355-5.713,1.585-7.525,3.939,3.286,6.739,5.6,8.842,7.311-.711.506-1.363.944-2.112,1.443a6.64,6.64,0,0,1-4.9.991M22.188,5.558V5.547A21.816,21.816,0,0,1,30.4,7.139c-3.812,3.177-6.447,5.351-8.4,6.925-1.95-1.573-4.585-3.748-8.4-6.925a21.765,21.765,0,0,1,8.208-1.592v.011c.006,0,.072,0,.187-.008s.185.008.189.008m21.461,6.857A12.6,12.6,0,0,0,40.02,6.631l2.439-2.036a.659.659,0,0,0,.05-.954L39.419.507A.778.778,0,0,0,38.382.461l-3.235,2.7A27.793,27.793,0,0,0,22,0,27.788,27.788,0,0,0,8.854,3.161L5.647.483A.78.78,0,0,0,4.609.529L1.52,3.663a.661.661,0,0,0,.05.954L3.981,6.63a12.6,12.6,0,0,0-3.63,5.784,10.228,10.228,0,0,0,1.356,8.278,11.085,11.085,0,0,0,7.378,4.834A13.093,13.093,0,0,0,18.747,23.6c1.142-.761,2.068-1.387,3.253-2.264,1.184.878,2.111,1.5,3.253,2.264a13.092,13.092,0,0,0,9.662,1.926,11.085,11.085,0,0,0,7.379-4.834,10.226,10.226,0,0,0,1.356-8.278" transform="translate(0 0)" fill="#fe5000" fill-rule="evenodd"/>
</svg>
