<svg xmlns="http://www.w3.org/2000/svg" width="27.712" height="33.254" viewBox="0 0 27.712 33.254">
  <g id="pdf_1_" data-name="pdf (1)" transform="translate(-14 -12)">
    <path id="Path_28" data-name="Path 28" d="M13.026,18.333h-.692v1.386h.692a.693.693,0,0,0,0-1.386Z" transform="translate(7.903 15.144)" fill="#fc573b"/>
    <path id="Path_29" data-name="Path 29" d="M16.706,18.333H15.667V22.49h1.039a.348.348,0,0,0,.347-.347V18.68A.35.35,0,0,0,16.706,18.333Z" transform="translate(11.498 15.144)" fill="#fc573b"/>
    <path id="Path_30" data-name="Path 30" d="M33.236,8H13.143a3.813,3.813,0,0,0-3.81,3.81V37.444a3.813,3.813,0,0,0,3.81,3.81H33.236a3.813,3.813,0,0,0,3.81-3.81V11.81A3.812,3.812,0,0,0,33.236,8ZM16.263,32.942h-.692v1.731a1.039,1.039,0,0,1-2.078,0V28.438A1.04,1.04,0,0,1,14.531,27.4h1.731a2.772,2.772,0,0,1,0,5.543Zm9.7.347a2.428,2.428,0,0,1-2.426,2.426H21.457a1.04,1.04,0,0,1-1.039-1.039V28.44A1.04,1.04,0,0,1,21.457,27.4h2.078a2.428,2.428,0,0,1,2.426,2.426Zm5.89-2.426a1.039,1.039,0,0,1,0,2.078H29.426v1.731a1.039,1.039,0,0,1-2.078,0V29.824A2.428,2.428,0,0,1,29.773,27.4h2.078a1.039,1.039,0,1,1,0,2.078H29.773a.348.348,0,0,0-.347.347v1.039Z" transform="translate(4.667 4)" fill="#fc573b"/>
  </g>
</svg>
