<svg xmlns="http://www.w3.org/2000/svg" width="29" height="16" viewBox="0 0 29 16">
  <path id="Send_icon" d="M28,16H8V11H3.5a.5.5,0,1,1,0-1H8V9A.5.5,0,1,1,9,9v5.153l6.164-6.164.707.707L9.568,15H27.4l-6.3-6.3.707-.707,6.2,6.2V1H9v.313a.5.5,0,0,1,.161.091l8.924,7.488L24.71,3.332a.5.5,0,1,1,.643.766L18.459,9.883a.671.671,0,0,1-.748,0L9,2.573V5A.5.5,0,0,1,8,5V0H29V16ZM.5,14a.5.5,0,0,1,0-1h5a.5.5,0,0,1,0,1Zm0-6a.5.5,0,1,1,0-1h10a.5.5,0,0,1,0,1Zm1-4a.5.5,0,1,1,0-1h5a.5.5,0,1,1,0,1Z" fill="#fe5804"/>
</svg>
