<svg xmlns="http://www.w3.org/2000/svg" width="25.072" height="17.901" viewBox="0 0 25.072 17.901">
  <g id="Group_146" data-name="Group 146" transform="translate(-186 -299)">
    <g id="upload" transform="translate(186 299)">
      <g id="Group_138" data-name="Group 138" transform="translate(0 0)">
        <g id="Group_137" data-name="Group 137" transform="translate(0 0)">
          <path id="Path_26" data-name="Path 26" d="M23.168,8.487a6.97,6.97,0,0,0,.118-1.27,7.164,7.164,0,0,0-13.9-2.433A3.582,3.582,0,0,0,4.58,7.276a5.373,5.373,0,0,0,.8,10.687H9.854c.495,0,.495-1.791,0-1.791H5.377a3.582,3.582,0,1,1,0-7.164.9.9,0,0,0,.9-.9A1.791,1.791,0,0,1,9.317,6.837a.9.9,0,0,0,1.512-.494A5.368,5.368,0,1,1,21.419,8.1q-.043.262-.113.518a.9.9,0,0,0,.37.985A3.582,3.582,0,0,1,19.7,16.172H9.854c-.495,0-.495,1.791,0,1.791H19.7a5.373,5.373,0,0,0,3.464-9.476Z" transform="translate(-0.001 -0.062)" fill="#fe5000"/>
        </g>
      </g>
    </g>
    <path id="correct" d="M3.979,8.319a.53.53,0,0,1-.75,0l-3-3a.8.8,0,0,1,0-1.125l.375-.375a.8.8,0,0,1,1.125,0L3.6,5.693,8.658.639a.8.8,0,0,1,1.125,0l.375.375a.8.8,0,0,1,0,1.125Zm0,0" transform="translate(193.763 305.111)" fill="#fe5000"/>
  </g>
</svg>
